<svg width="1038" height="582" viewBox="0 0 1038 582" fill="none" xmlns="http://www.w3.org/2000/svg">
<g opacity="0.2" clip-path="url(#clip0_82_148)">
<path d="M627.525 361.79C622.779 358.501 617.955 355.341 612.948 352.443C612.374 352.104 611.8 351.738 611.226 351.425C603.09 346.804 594.64 342.783 585.904 339.258C584.939 338.867 583.974 338.449 582.983 338.083C574.247 334.741 565.25 332 556.018 329.859C555.314 329.702 554.636 329.52 553.932 329.363C544.857 327.353 535.573 325.969 526.106 325.186C525.115 325.107 524.098 325.029 523.107 324.951C518.465 324.637 513.797 324.428 509.077 324.428C504.357 324.428 499.689 324.637 495.047 324.951C494.395 325.003 493.743 325.055 493.091 325.107C483.599 325.838 474.289 327.17 465.187 329.154C464.17 329.389 463.153 329.65 462.136 329.885C452.904 332.026 443.881 334.768 435.171 338.11C434.545 338.345 433.919 338.632 433.293 338.867C424.557 342.313 416.081 346.308 407.919 350.877C407.006 351.399 406.12 351.947 405.207 352.469C400.2 355.368 395.375 358.527 390.629 361.816C424.557 338.736 465.291 325.264 509.103 325.264C552.915 325.264 593.649 338.736 627.578 361.816L627.525 361.79Z" fill="url(#paint0_linear_82_148)"/>
<path d="M299.354 499.071L288.141 494.946L24.0703 471.709L286.289 527.843L295.443 527.269C296.173 517.687 297.451 508.288 299.354 499.071Z" fill="url(#paint1_linear_82_148)"/>
<path d="M320.243 440.665L309.603 432.702L63.6836 335.081L300.684 464.738L308.664 466.618C311.976 457.662 315.836 448.994 320.217 440.665H320.243Z" fill="url(#paint2_linear_82_148)"/>
<path d="M356.518 390.51L348.851 380.275L139.311 215.188L331.483 408.081L338.289 411.998C343.896 404.426 349.998 397.246 356.492 390.51H356.518Z" fill="url(#paint3_linear_82_148)"/>
<path d="M390.577 361.79C395.324 358.501 400.148 355.368 405.155 352.443L400.774 340.851L245.242 121.849L375.634 361.634L381.789 368.057C384.657 365.89 387.578 363.801 390.551 361.764L390.577 361.79Z" fill="url(#paint4_linear_82_148)"/>
<path d="M709.413 466.618L721.957 463.667L955.385 337.326L705.188 435.156L697.834 440.665C702.215 448.994 706.075 457.688 709.387 466.618H709.413Z" fill="url(#paint5_linear_82_148)"/>
<path d="M679.787 411.998L690.192 406.019L880.356 217.068L666.591 383.8L661.584 390.484C668.104 397.246 674.18 404.426 679.787 411.972V411.998Z" fill="url(#paint6_linear_82_148)"/>
<path d="M722.634 527.243L735.569 528.052L994.424 474.268L725.425 496.591L718.723 499.045C720.626 508.235 721.904 517.661 722.634 527.217V527.243Z" fill="url(#paint7_linear_82_148)"/>
<path d="M627.526 361.79C630.499 363.801 633.42 365.89 636.288 368.057L645.52 358.396L774.947 123.233L615.66 345.237L612.922 352.443C617.929 355.342 622.753 358.501 627.5 361.79H627.526Z" fill="url(#paint8_linear_82_148)"/>
<path d="M462.085 329.859L461.094 317.562L371.932 63.0518L431.521 331.217L435.094 338.083C443.83 334.742 452.827 332 462.059 329.859H462.085Z" fill="url(#paint9_linear_82_148)"/>
<path d="M509.051 324.402C513.771 324.402 518.439 324.611 523.081 324.924L525.428 313.254L510.381 43L493.508 317.51L494.994 324.924C499.636 324.611 504.304 324.402 509.024 324.402H509.051Z" fill="url(#paint10_linear_82_148)"/>
<path d="M582.985 338.083L588.618 327.222L648.389 63.7566L556.671 321.583L556.02 329.833C565.251 331.974 574.274 334.715 582.985 338.057V338.083Z" fill="url(#paint11_linear_82_148)"/>
<path d="M379.937 369.492L375.66 361.634L188.025 165.582L348.851 380.275L358.839 388.134C365.463 381.476 372.504 375.236 379.937 369.492Z" fill="url(#paint12_linear_82_148)"/>
<path d="M307.882 468.68L300.685 464.738L38.6484 403.225L288.115 494.92L300.033 495.964C302.093 486.617 304.675 477.505 307.882 468.654V468.68Z" fill="url(#paint13_linear_82_148)"/>
<path d="M433.241 338.841L431.546 331.217L305.326 88.3513L400.773 340.851L407.867 350.851C416.003 346.282 424.505 342.313 433.241 338.841Z" fill="url(#paint14_linear_82_148)"/>
<path d="M493.065 325.081L493.535 317.51L439.5 48.1174L461.093 317.562L465.135 329.128C474.236 327.144 483.573 325.812 493.039 325.081H493.065Z" fill="url(#paint15_linear_82_148)"/>
<path d="M337.038 413.669L331.483 408.082L96.7773 273.229L309.603 432.702L321.912 437.585C326.45 429.282 331.483 421.267 337.038 413.669Z" fill="url(#paint16_linear_82_148)"/>
<path d="M723.363 544.475C723.363 549.436 723.155 554.318 722.842 559.2L731.813 561.132L999.195 544.475L735.594 528.052L722.92 530.689C723.207 535.258 723.39 539.827 723.39 544.475H723.363Z" fill="url(#paint17_linear_82_148)"/>
<path d="M718.304 497.191L725.424 496.591L979.402 403.225L721.955 463.641L710.611 469.777C713.741 478.654 716.296 487.792 718.331 497.139L718.304 497.191Z" fill="url(#paint18_linear_82_148)"/>
<path d="M696.659 438.498L705.187 435.156L921.325 273.229L690.218 406.019L681.664 414.53C687.167 422.154 692.174 430.17 696.685 438.498H696.659Z" fill="url(#paint19_linear_82_148)"/>
<path d="M553.933 329.363L556.698 321.609L578.604 48.1174L525.43 313.28L526.082 325.186C535.548 325.969 544.832 327.353 553.907 329.363H553.933Z" fill="url(#paint20_linear_82_148)"/>
<path d="M660.047 388.918L666.592 383.826L830.078 165.608L645.521 358.422L639.027 370.224C646.434 375.994 653.449 382.26 660.047 388.944V388.918Z" fill="url(#paint21_linear_82_148)"/>
<path d="M611.227 351.425L615.66 345.237L712.777 88.3774L588.617 327.248L585.879 339.285C594.615 342.783 603.065 346.83 611.201 351.451L611.227 351.425Z" fill="url(#paint22_linear_82_148)"/>
<path d="M294.739 544.475C294.739 539.514 294.947 534.632 295.26 529.749L286.289 527.817L18.9072 544.475L282.508 560.897L295.182 558.26C294.895 553.691 294.713 549.122 294.713 544.475H294.739Z" fill="url(#paint23_linear_82_148)"/>
<path d="M722.635 561.681L731.788 561.106L722.817 559.174C722.765 560.01 722.687 560.845 722.635 561.654V561.681Z" fill="url(#paint24_linear_82_148)"/>
<path d="M639.027 370.197L645.521 358.396L636.289 368.057C637.228 368.761 638.115 369.466 639.027 370.197Z" fill="url(#paint25_linear_82_148)"/>
<path d="M585.904 339.258L588.643 327.222L583.01 338.083C584.001 338.449 584.94 338.893 585.931 339.258H585.904Z" fill="url(#paint26_linear_82_148)"/>
<path d="M556.019 329.859L556.671 321.609L553.906 329.363C554.61 329.52 555.314 329.702 555.993 329.859H556.019Z" fill="url(#paint27_linear_82_148)"/>
<path d="M612.947 352.443L615.685 345.237L611.252 351.425C611.826 351.765 612.399 352.104 612.973 352.443H612.947Z" fill="url(#paint28_linear_82_148)"/>
<path d="M710.612 469.829L721.956 463.694L709.412 466.644C709.803 467.714 710.221 468.759 710.612 469.855V469.829Z" fill="url(#paint29_linear_82_148)"/>
<path d="M718.722 499.071L725.424 496.617L718.305 497.217C718.435 497.844 718.592 498.471 718.722 499.097V499.071Z" fill="url(#paint30_linear_82_148)"/>
<path d="M722.896 530.689L735.57 528.052L722.635 527.243C722.713 528.392 722.817 529.54 722.896 530.689Z" fill="url(#paint31_linear_82_148)"/>
<path d="M661.584 390.51L666.591 383.826L660.045 388.917C660.566 389.44 661.062 389.988 661.584 390.51Z" fill="url(#paint32_linear_82_148)"/>
<path d="M681.639 414.53L690.192 406.019L679.787 411.998C680.413 412.833 681.013 413.669 681.639 414.53Z" fill="url(#paint33_linear_82_148)"/>
<path d="M697.859 440.665L705.213 435.156L696.686 438.498C697.077 439.229 697.468 439.934 697.859 440.665Z" fill="url(#paint34_linear_82_148)"/>
<path d="M308.691 466.618L300.711 464.738L307.909 468.68C308.169 467.976 308.456 467.323 308.691 466.618Z" fill="url(#paint35_linear_82_148)"/>
<path d="M526.081 325.16L525.429 313.254L523.082 324.925C524.073 325.003 525.09 325.081 526.081 325.16Z" fill="url(#paint36_linear_82_148)"/>
<path d="M338.289 411.998L331.482 408.082L337.037 413.669C337.454 413.094 337.872 412.572 338.289 411.998Z" fill="url(#paint37_linear_82_148)"/>
<path d="M295.182 558.234L282.508 560.871L295.443 561.681C295.364 560.532 295.26 559.383 295.182 558.234Z" fill="url(#paint38_linear_82_148)"/>
<path d="M295.443 527.243L286.289 527.817L295.26 529.749C295.312 528.914 295.39 528.078 295.443 527.269V527.243Z" fill="url(#paint39_linear_82_148)"/>
<path d="M300.058 495.99L288.141 494.946L299.354 499.071C299.563 498.027 299.824 497.035 300.058 495.99Z" fill="url(#paint40_linear_82_148)"/>
<path d="M321.938 437.585L309.629 432.702L320.269 440.665C320.817 439.621 321.39 438.603 321.964 437.585H321.938Z" fill="url(#paint41_linear_82_148)"/>
<path d="M435.092 338.083L431.52 331.217L433.215 338.841C433.84 338.606 434.466 338.318 435.092 338.083Z" fill="url(#paint42_linear_82_148)"/>
<path d="M465.136 329.128L461.094 317.562L462.085 329.859C463.102 329.624 464.119 329.363 465.136 329.128Z" fill="url(#paint43_linear_82_148)"/>
<path d="M358.84 388.134L348.852 380.275L356.519 390.51C357.275 389.727 358.057 388.944 358.84 388.16V388.134Z" fill="url(#paint44_linear_82_148)"/>
<path d="M494.995 324.924L493.508 317.51L493.039 325.081C493.691 325.029 494.343 324.977 494.995 324.924Z" fill="url(#paint45_linear_82_148)"/>
<path d="M381.815 368.057L375.66 361.634L379.937 369.493C380.563 369.023 381.189 368.527 381.815 368.057Z" fill="url(#paint46_linear_82_148)"/>
<path d="M407.867 350.851L400.773 340.851L405.155 352.443C406.067 351.921 406.954 351.347 407.867 350.851Z" fill="url(#paint47_linear_82_148)"/>
<path d="M695.564 533.77C695.564 543.248 694.834 552.595 693.53 561.681H324.546C323.216 552.595 322.512 543.248 322.512 533.77C322.512 430.64 406.015 347.039 509.077 347.039C612.139 347.039 695.59 430.64 695.59 533.77H695.564Z" fill="url(#paint48_linear_82_148)"/>
</g>
<defs>
<linearGradient id="paint0_linear_82_148" x1="504.357" y1="323.462" x2="510.813" y2="376.122" gradientUnits="userSpaceOnUse">
<stop stop-color="#F15C31"/>
<stop offset="1" stop-color="#EDB320"/>
</linearGradient>
<linearGradient id="paint1_linear_82_148" x1="158.009" y1="455.234" x2="168.778" y2="542.827" gradientUnits="userSpaceOnUse">
<stop stop-color="#F15C31"/>
<stop offset="1" stop-color="#EDB320"/>
</linearGradient>
<linearGradient id="paint2_linear_82_148" x1="183.697" y1="320.329" x2="203.274" y2="479.588" gradientUnits="userSpaceOnUse">
<stop stop-color="#F15C31"/>
<stop offset="1" stop-color="#EDB320"/>
</linearGradient>
<linearGradient id="paint3_linear_82_148" x1="235.723" y1="203.335" x2="262.515" y2="421.311" gradientUnits="userSpaceOnUse">
<stop stop-color="#F15C31"/>
<stop offset="1" stop-color="#EDB320"/>
</linearGradient>
<linearGradient id="paint4_linear_82_148" x1="310.073" y1="113.86" x2="341.936" y2="372.956" gradientUnits="userSpaceOnUse">
<stop stop-color="#F15C31"/>
<stop offset="1" stop-color="#EDB320"/>
</linearGradient>
<linearGradient id="paint5_linear_82_148" x1="822.28" y1="353.696" x2="834.278" y2="451.288" gradientUnits="userSpaceOnUse">
<stop stop-color="#F15C31"/>
<stop offset="1" stop-color="#EDB320"/>
</linearGradient>
<linearGradient id="paint6_linear_82_148" x1="762.116" y1="231.611" x2="782.74" y2="399.355" gradientUnits="userSpaceOnUse">
<stop stop-color="#F15C31"/>
<stop offset="1" stop-color="#EDB320"/>
</linearGradient>
<linearGradient id="paint7_linear_82_148" x1="855.843" y1="480.586" x2="859.79" y2="512.777" gradientUnits="userSpaceOnUse">
<stop stop-color="#F15C31"/>
<stop offset="1" stop-color="#EDB320"/>
</linearGradient>
<linearGradient id="paint8_linear_82_148" x1="681.3" y1="134.747" x2="708.902" y2="359.146" gradientUnits="userSpaceOnUse">
<stop stop-color="#F15C31"/>
<stop offset="1" stop-color="#EDB320"/>
</linearGradient>
<linearGradient id="paint9_linear_82_148" x1="400.488" y1="59.5532" x2="434.729" y2="338.126" gradientUnits="userSpaceOnUse">
<stop stop-color="#F15C31"/>
<stop offset="1" stop-color="#EDB320"/>
</linearGradient>
<linearGradient id="paint10_linear_82_148" x1="485.502" y1="46.0547" x2="519.822" y2="325.333" gradientUnits="userSpaceOnUse">
<stop stop-color="#F15C31"/>
<stop offset="1" stop-color="#EDB320"/>
</linearGradient>
<linearGradient id="paint11_linear_82_148" x1="586.818" y1="71.3282" x2="619.073" y2="333.662" gradientUnits="userSpaceOnUse">
<stop stop-color="#F15C31"/>
<stop offset="1" stop-color="#EDB320"/>
</linearGradient>
<linearGradient id="paint12_linear_82_148" x1="270.251" y1="155.477" x2="299.735" y2="395.41" gradientUnits="userSpaceOnUse">
<stop stop-color="#F15C31"/>
<stop offset="1" stop-color="#EDB320"/>
</linearGradient>
<linearGradient id="paint13_linear_82_148" x1="167.319" y1="387.429" x2="182.454" y2="510.451" gradientUnits="userSpaceOnUse">
<stop stop-color="#F15C31"/>
<stop offset="1" stop-color="#EDB320"/>
</linearGradient>
<linearGradient id="paint14_linear_82_148" x1="353.18" y1="82.4768" x2="386.507" y2="353.478" gradientUnits="userSpaceOnUse">
<stop stop-color="#F15C31"/>
<stop offset="1" stop-color="#EDB320"/>
</linearGradient>
<linearGradient id="paint15_linear_82_148" x1="444.194" y1="47.543" x2="478.593" y2="327.474" gradientUnits="userSpaceOnUse">
<stop stop-color="#F15C31"/>
<stop offset="1" stop-color="#EDB320"/>
</linearGradient>
<linearGradient id="paint16_linear_82_148" x1="206.646" y1="259.73" x2="229.909" y2="448.909" gradientUnits="userSpaceOnUse">
<stop stop-color="#F15C31"/>
<stop offset="1" stop-color="#EDB320"/>
</linearGradient>
<linearGradient id="paint17_linear_82_148" x1="856.259" y1="513.222" x2="862.166" y2="561.313" gradientUnits="userSpaceOnUse">
<stop stop-color="#F15C31"/>
<stop offset="1" stop-color="#EDB320"/>
</linearGradient>
<linearGradient id="paint18_linear_82_148" x1="842.985" y1="420.013" x2="850.513" y2="481.237" gradientUnits="userSpaceOnUse">
<stop stop-color="#F15C31"/>
<stop offset="1" stop-color="#EDB320"/>
</linearGradient>
<linearGradient id="paint19_linear_82_148" x1="794.714" y1="288.816" x2="811.391" y2="424.395" gradientUnits="userSpaceOnUse">
<stop stop-color="#F15C31"/>
<stop offset="1" stop-color="#EDB320"/>
</linearGradient>
<linearGradient id="paint20_linear_82_148" x1="535.991" y1="53.3392" x2="569.684" y2="327.422" gradientUnits="userSpaceOnUse">
<stop stop-color="#F15C31"/>
<stop offset="1" stop-color="#EDB320"/>
</linearGradient>
<linearGradient id="paint21_linear_82_148" x1="723.626" y1="178.688" x2="748.118" y2="378.102" gradientUnits="userSpaceOnUse">
<stop stop-color="#F15C31"/>
<stop offset="1" stop-color="#EDB320"/>
</linearGradient>
<linearGradient id="paint22_linear_82_148" x1="635.115" y1="97.9072" x2="665.462" y2="344.759" gradientUnits="userSpaceOnUse">
<stop stop-color="#F15C31"/>
<stop offset="1" stop-color="#EDB320"/>
</linearGradient>
<linearGradient id="paint23_linear_82_148" x1="155.923" y1="527.634" x2="161.831" y2="575.699" gradientUnits="userSpaceOnUse">
<stop stop-color="#F15C31"/>
<stop offset="1" stop-color="#EDB320"/>
</linearGradient>
<linearGradient id="paint24_linear_82_148" x1="726.886" y1="558.704" x2="727.251" y2="561.68" gradientUnits="userSpaceOnUse">
<stop stop-color="#F15C31"/>
<stop offset="1" stop-color="#EDB320"/>
</linearGradient>
<linearGradient id="paint25_linear_82_148" x1="640.383" y1="359.049" x2="641.716" y2="369.858" gradientUnits="userSpaceOnUse">
<stop stop-color="#F15C31"/>
<stop offset="1" stop-color="#EDB320"/>
</linearGradient>
<linearGradient id="paint26_linear_82_148" x1="585.2" y1="327.666" x2="586.612" y2="339.18" gradientUnits="userSpaceOnUse">
<stop stop-color="#F15C31"/>
<stop offset="1" stop-color="#EDB320"/>
</linearGradient>
<linearGradient id="paint27_linear_82_148" x1="554.845" y1="321.818" x2="555.838" y2="329.885" gradientUnits="userSpaceOnUse">
<stop stop-color="#F15C31"/>
<stop offset="1" stop-color="#EDB320"/>
</linearGradient>
<linearGradient id="paint28_linear_82_148" x1="613.104" y1="345.551" x2="613.94" y2="352.313" gradientUnits="userSpaceOnUse">
<stop stop-color="#F15C31"/>
<stop offset="1" stop-color="#EDB320"/>
</linearGradient>
<linearGradient id="paint29_linear_82_148" x1="715.593" y1="464.477" x2="716.168" y2="469.15" gradientUnits="userSpaceOnUse">
<stop stop-color="#F15C31"/>
<stop offset="1" stop-color="#EDB320"/>
</linearGradient>
<linearGradient id="paint30_linear_82_148" x1="721.851" y1="496.774" x2="722.087" y2="498.653" gradientUnits="userSpaceOnUse">
<stop stop-color="#F15C31"/>
<stop offset="1" stop-color="#EDB320"/>
</linearGradient>
<linearGradient id="paint31_linear_82_148" x1="728.894" y1="526.486" x2="729.312" y2="529.906" gradientUnits="userSpaceOnUse">
<stop stop-color="#F15C31"/>
<stop offset="1" stop-color="#EDB320"/>
</linearGradient>
<linearGradient id="paint32_linear_82_148" x1="663.07" y1="384.244" x2="663.802" y2="390.223" gradientUnits="userSpaceOnUse">
<stop stop-color="#F15C31"/>
<stop offset="1" stop-color="#EDB320"/>
</linearGradient>
<linearGradient id="paint33_linear_82_148" x1="684.716" y1="406.698" x2="685.631" y2="414.034" gradientUnits="userSpaceOnUse">
<stop stop-color="#F15C31"/>
<stop offset="1" stop-color="#EDB320"/>
</linearGradient>
<linearGradient id="paint34_linear_82_148" x1="700.806" y1="435.705" x2="701.355" y2="440.248" gradientUnits="userSpaceOnUse">
<stop stop-color="#F15C31"/>
<stop offset="1" stop-color="#EDB320"/>
</linearGradient>
<linearGradient id="paint35_linear_82_148" x1="304.518" y1="464.294" x2="305.093" y2="469.02" gradientUnits="userSpaceOnUse">
<stop stop-color="#F15C31"/>
<stop offset="1" stop-color="#EDB320"/>
</linearGradient>
<linearGradient id="paint36_linear_82_148" x1="523.578" y1="313.515" x2="525.015" y2="325.316" gradientUnits="userSpaceOnUse">
<stop stop-color="#F15C31"/>
<stop offset="1" stop-color="#EDB320"/>
</linearGradient>
<linearGradient id="paint37_linear_82_148" x1="334.612" y1="407.69" x2="335.37" y2="413.878" gradientUnits="userSpaceOnUse">
<stop stop-color="#F15C31"/>
<stop offset="1" stop-color="#EDB320"/>
</linearGradient>
<linearGradient id="paint38_linear_82_148" x1="288.793" y1="559.044" x2="289.211" y2="562.438" gradientUnits="userSpaceOnUse">
<stop stop-color="#F15C31"/>
<stop offset="1" stop-color="#EDB320"/>
</linearGradient>
<linearGradient id="paint39_linear_82_148" x1="290.827" y1="527.269" x2="291.193" y2="530.245" gradientUnits="userSpaceOnUse">
<stop stop-color="#F15C31"/>
<stop offset="1" stop-color="#EDB320"/>
</linearGradient>
<linearGradient id="paint40_linear_82_148" x1="293.956" y1="494.241" x2="294.61" y2="499.645" gradientUnits="userSpaceOnUse">
<stop stop-color="#F15C31"/>
<stop offset="1" stop-color="#EDB320"/>
</linearGradient>
<linearGradient id="paint41_linear_82_148" x1="315.392" y1="431.997" x2="316.516" y2="441.135" gradientUnits="userSpaceOnUse">
<stop stop-color="#F15C31"/>
<stop offset="1" stop-color="#EDB320"/>
</linearGradient>
<linearGradient id="paint42_linear_82_148" x1="432.876" y1="331.06" x2="433.817" y2="338.762" gradientUnits="userSpaceOnUse">
<stop stop-color="#F15C31"/>
<stop offset="1" stop-color="#EDB320"/>
</linearGradient>
<linearGradient id="paint43_linear_82_148" x1="462.137" y1="317.431" x2="463.627" y2="329.676" gradientUnits="userSpaceOnUse">
<stop stop-color="#F15C31"/>
<stop offset="1" stop-color="#EDB320"/>
</linearGradient>
<linearGradient id="paint44_linear_82_148" x1="353.285" y1="379.727" x2="354.644" y2="390.745" gradientUnits="userSpaceOnUse">
<stop stop-color="#F15C31"/>
<stop offset="1" stop-color="#EDB320"/>
</linearGradient>
<linearGradient id="paint45_linear_82_148" x1="493.117" y1="317.562" x2="494.032" y2="325.055" gradientUnits="userSpaceOnUse">
<stop stop-color="#F15C31"/>
<stop offset="1" stop-color="#EDB320"/>
</linearGradient>
<linearGradient id="paint46_linear_82_148" x1="378.294" y1="361.294" x2="379.313" y2="369.571" gradientUnits="userSpaceOnUse">
<stop stop-color="#F15C31"/>
<stop offset="1" stop-color="#EDB320"/>
</linearGradient>
<linearGradient id="paint47_linear_82_148" x1="403.668" y1="340.512" x2="405.132" y2="352.443" gradientUnits="userSpaceOnUse">
<stop stop-color="#F15C31"/>
<stop offset="1" stop-color="#EDB320"/>
</linearGradient>
<linearGradient id="paint48_linear_82_148" x1="486.31" y1="348.423" x2="515.22" y2="583.604" gradientUnits="userSpaceOnUse">
<stop stop-color="#F15C31"/>
<stop offset="1" stop-color="#EDB320"/>
</linearGradient>
<clipPath id="clip0_82_148">
<rect width="1038" height="582" fill="white"/>
</clipPath>
</defs>
</svg>
